<mxfile host="65bd71144e">
    <diagram id="5Jc84xkCsBTAqoPWwrEa" name="Page-1">
        <mxGraphModel dx="1882" dy="1099" grid="1" gridSize="10" guides="1" tooltips="1" connect="1" arrows="1" fold="1" page="1" pageScale="1" pageWidth="850" pageHeight="1100" math="0" shadow="0">
            <root>
                <mxCell id="0"/>
                <mxCell id="1" parent="0"/>
                <mxCell id="6" style="edgeStyle=none;html=1;noEdgeStyle=1;orthogonal=1;" parent="1" source="2" target="4" edge="1">
                    <mxGeometry relative="1" as="geometry">
                        <Array as="points">
                            <mxPoint x="92" y="339.375"/>
                            <mxPoint x="168" y="22.5"/>
                        </Array>
                    </mxGeometry>
                </mxCell>
                <mxCell id="7" style="edgeStyle=none;html=1;noEdgeStyle=1;orthogonal=1;" parent="1" source="2" target="5" edge="1">
                    <mxGeometry relative="1" as="geometry">
                        <Array as="points">
                            <mxPoint x="94" y="348.125"/>
                            <mxPoint x="168" y="132.5"/>
                        </Array>
                    </mxGeometry>
                </mxCell>
                <mxCell id="9" style="edgeStyle=none;html=1;noEdgeStyle=1;orthogonal=1;" parent="1" source="2" target="8" edge="1">
                    <mxGeometry relative="1" as="geometry">
                        <Array as="points">
                            <mxPoint x="96" y="356.875"/>
                            <mxPoint x="168" y="242.5"/>
                        </Array>
                    </mxGeometry>
                </mxCell>
                <mxCell id="11" style="edgeStyle=none;html=1;noEdgeStyle=1;orthogonal=1;" parent="1" source="2" target="10" edge="1">
                    <mxGeometry relative="1" as="geometry">
                        <Array as="points">
                            <mxPoint x="98" y="365.625"/>
                            <mxPoint x="168" y="352.5"/>
                        </Array>
                    </mxGeometry>
                </mxCell>
                <mxCell id="52" style="edgeStyle=none;html=1;noEdgeStyle=1;orthogonal=1;" parent="1" source="2" target="38" edge="1">
                    <mxGeometry relative="1" as="geometry">
                        <Array as="points">
                            <mxPoint x="98" y="374.375"/>
                            <mxPoint x="168" y="462.5"/>
                        </Array>
                    </mxGeometry>
                </mxCell>
                <mxCell id="53" style="edgeStyle=none;html=1;noEdgeStyle=1;orthogonal=1;" parent="1" source="2" target="40" edge="1">
                    <mxGeometry relative="1" as="geometry">
                        <Array as="points">
                            <mxPoint x="96" y="383.125"/>
                            <mxPoint x="168" y="572.5"/>
                        </Array>
                    </mxGeometry>
                </mxCell>
                <mxCell id="54" style="edgeStyle=none;html=1;noEdgeStyle=1;orthogonal=1;" parent="1" source="2" target="42" edge="1">
                    <mxGeometry relative="1" as="geometry">
                        <Array as="points">
                            <mxPoint x="94" y="391.875"/>
                            <mxPoint x="168" y="682.5"/>
                        </Array>
                    </mxGeometry>
                </mxCell>
                <mxCell id="75" style="edgeStyle=none;html=1;noEdgeStyle=1;orthogonal=1;" edge="1" parent="1" source="2" target="72">
                    <mxGeometry relative="1" as="geometry">
                        <Array as="points">
                            <mxPoint x="92" y="400.625"/>
                            <mxPoint x="168" y="792.5"/>
                        </Array>
                    </mxGeometry>
                </mxCell>
                <mxCell id="2" value="X" style="ellipse;whiteSpace=wrap;html=1;aspect=fixed;" parent="1" vertex="1">
                    <mxGeometry y="330" width="80" height="80" as="geometry"/>
                </mxCell>
                <mxCell id="24" style="edgeStyle=none;html=1;noEdgeStyle=1;orthogonal=1;" parent="1" source="4" target="22" edge="1">
                    <mxGeometry relative="1" as="geometry">
                        <Array as="points">
                            <mxPoint x="272" y="40"/>
                            <mxPoint x="348" y="222.75"/>
                        </Array>
                    </mxGeometry>
                </mxCell>
                <mxCell id="4" value="L1" style="ellipse;whiteSpace=wrap;html=1;aspect=fixed;" parent="1" vertex="1">
                    <mxGeometry x="180" width="80" height="80" as="geometry"/>
                </mxCell>
                <mxCell id="27" style="edgeStyle=none;html=1;noEdgeStyle=1;orthogonal=1;" parent="1" source="5" target="22" edge="1">
                    <mxGeometry relative="1" as="geometry">
                        <Array as="points">
                            <mxPoint x="272" y="150"/>
                            <mxPoint x="346" y="240.25"/>
                        </Array>
                    </mxGeometry>
                </mxCell>
                <mxCell id="5" value="L2" style="ellipse;whiteSpace=wrap;html=1;aspect=fixed;" parent="1" vertex="1">
                    <mxGeometry x="180" y="110" width="80" height="80" as="geometry"/>
                </mxCell>
                <mxCell id="28" style="edgeStyle=none;html=1;noEdgeStyle=1;orthogonal=1;" parent="1" source="8" target="22" edge="1">
                    <mxGeometry relative="1" as="geometry">
                        <Array as="points">
                            <mxPoint x="272" y="260"/>
                            <mxPoint x="346" y="257.75"/>
                        </Array>
                    </mxGeometry>
                </mxCell>
                <mxCell id="8" value="L3" style="ellipse;whiteSpace=wrap;html=1;aspect=fixed;" parent="1" vertex="1">
                    <mxGeometry x="180" y="220" width="80" height="80" as="geometry"/>
                </mxCell>
                <mxCell id="29" style="edgeStyle=none;html=1;noEdgeStyle=1;orthogonal=1;" parent="1" source="10" target="22" edge="1">
                    <mxGeometry relative="1" as="geometry">
                        <Array as="points">
                            <mxPoint x="272" y="370"/>
                            <mxPoint x="348" y="275.25"/>
                        </Array>
                    </mxGeometry>
                </mxCell>
                <mxCell id="10" value="L4" style="ellipse;whiteSpace=wrap;html=1;aspect=fixed;" parent="1" vertex="1">
                    <mxGeometry x="180" y="330" width="80" height="80" as="geometry"/>
                </mxCell>
                <mxCell id="45" style="edgeStyle=none;html=1;noEdgeStyle=1;orthogonal=1;" parent="1" source="22" target="44" edge="1">
                    <mxGeometry relative="1" as="geometry">
                        <Array as="points">
                            <mxPoint x="452" y="249"/>
                            <mxPoint x="528" y="407.5"/>
                        </Array>
                    </mxGeometry>
                </mxCell>
                <mxCell id="22" value="AND" style="ellipse;whiteSpace=wrap;html=1;aspect=fixed;" parent="1" vertex="1">
                    <mxGeometry x="360" y="209" width="80" height="80" as="geometry"/>
                </mxCell>
                <mxCell id="31" style="edgeStyle=none;html=1;noEdgeStyle=1;orthogonal=1;" parent="1" source="34" target="38" edge="1">
                    <mxGeometry relative="1" as="geometry">
                        <Array as="points">
                            <mxPoint x="98" y="484.375"/>
                            <mxPoint x="168" y="497.5"/>
                        </Array>
                    </mxGeometry>
                </mxCell>
                <mxCell id="32" style="edgeStyle=none;html=1;noEdgeStyle=1;orthogonal=1;" parent="1" source="34" target="40" edge="1">
                    <mxGeometry relative="1" as="geometry">
                        <Array as="points">
                            <mxPoint x="96" y="493.125"/>
                            <mxPoint x="168" y="607.5"/>
                        </Array>
                    </mxGeometry>
                </mxCell>
                <mxCell id="33" style="edgeStyle=none;html=1;noEdgeStyle=1;orthogonal=1;" parent="1" source="34" target="42" edge="1">
                    <mxGeometry relative="1" as="geometry">
                        <Array as="points">
                            <mxPoint x="94" y="501.875"/>
                            <mxPoint x="168" y="717.5"/>
                        </Array>
                    </mxGeometry>
                </mxCell>
                <mxCell id="47" style="edgeStyle=none;html=1;noEdgeStyle=1;orthogonal=1;" parent="1" source="34" target="4" edge="1">
                    <mxGeometry relative="1" as="geometry">
                        <Array as="points">
                            <mxPoint x="92" y="449.375"/>
                            <mxPoint x="168" y="57.5"/>
                        </Array>
                    </mxGeometry>
                </mxCell>
                <mxCell id="48" style="edgeStyle=none;html=1;noEdgeStyle=1;orthogonal=1;" parent="1" source="34" target="5" edge="1">
                    <mxGeometry relative="1" as="geometry">
                        <Array as="points">
                            <mxPoint x="94" y="458.125"/>
                            <mxPoint x="168" y="167.5"/>
                        </Array>
                    </mxGeometry>
                </mxCell>
                <mxCell id="49" style="edgeStyle=none;html=1;noEdgeStyle=1;orthogonal=1;" parent="1" source="34" target="8" edge="1">
                    <mxGeometry relative="1" as="geometry">
                        <Array as="points">
                            <mxPoint x="96" y="466.875"/>
                            <mxPoint x="168" y="277.5"/>
                        </Array>
                    </mxGeometry>
                </mxCell>
                <mxCell id="50" style="edgeStyle=none;html=1;noEdgeStyle=1;orthogonal=1;" parent="1" source="34" target="10" edge="1">
                    <mxGeometry relative="1" as="geometry">
                        <Array as="points">
                            <mxPoint x="98" y="475.625"/>
                            <mxPoint x="168" y="387.5"/>
                        </Array>
                    </mxGeometry>
                </mxCell>
                <mxCell id="74" style="edgeStyle=none;html=1;noEdgeStyle=1;orthogonal=1;" edge="1" parent="1" source="34" target="72">
                    <mxGeometry relative="1" as="geometry">
                        <Array as="points">
                            <mxPoint x="92" y="510.625"/>
                            <mxPoint x="168" y="827.5"/>
                        </Array>
                    </mxGeometry>
                </mxCell>
                <mxCell id="34" value="Y" style="ellipse;whiteSpace=wrap;html=1;aspect=fixed;" parent="1" vertex="1">
                    <mxGeometry y="440" width="80" height="80" as="geometry"/>
                </mxCell>
                <mxCell id="37" style="edgeStyle=none;html=1;noEdgeStyle=1;orthogonal=1;" parent="1" source="38" target="43" edge="1">
                    <mxGeometry relative="1" as="geometry">
                        <Array as="points">
                            <mxPoint x="272" y="480"/>
                            <mxPoint x="348" y="574.75"/>
                        </Array>
                    </mxGeometry>
                </mxCell>
                <mxCell id="38" value="L5" style="ellipse;whiteSpace=wrap;html=1;aspect=fixed;" parent="1" vertex="1">
                    <mxGeometry x="180" y="440" width="80" height="80" as="geometry"/>
                </mxCell>
                <mxCell id="39" style="edgeStyle=none;html=1;noEdgeStyle=1;orthogonal=1;" parent="1" source="40" target="43" edge="1">
                    <mxGeometry relative="1" as="geometry">
                        <Array as="points">
                            <mxPoint x="272" y="590"/>
                            <mxPoint x="346" y="592.25"/>
                        </Array>
                    </mxGeometry>
                </mxCell>
                <mxCell id="40" value="L6" style="ellipse;whiteSpace=wrap;html=1;aspect=fixed;" parent="1" vertex="1">
                    <mxGeometry x="180" y="550" width="80" height="80" as="geometry"/>
                </mxCell>
                <mxCell id="41" style="edgeStyle=none;html=1;noEdgeStyle=1;orthogonal=1;" parent="1" source="42" target="43" edge="1">
                    <mxGeometry relative="1" as="geometry">
                        <Array as="points">
                            <mxPoint x="272" y="700"/>
                            <mxPoint x="346" y="609.75"/>
                        </Array>
                    </mxGeometry>
                </mxCell>
                <mxCell id="42" value="L7" style="ellipse;whiteSpace=wrap;html=1;aspect=fixed;" parent="1" vertex="1">
                    <mxGeometry x="180" y="660" width="80" height="80" as="geometry"/>
                </mxCell>
                <mxCell id="46" style="edgeStyle=none;html=1;noEdgeStyle=1;orthogonal=1;" parent="1" source="43" target="44" edge="1">
                    <mxGeometry relative="1" as="geometry">
                        <Array as="points">
                            <mxPoint x="452" y="601"/>
                            <mxPoint x="528" y="442.5"/>
                        </Array>
                    </mxGeometry>
                </mxCell>
                <mxCell id="43" value="AND" style="ellipse;whiteSpace=wrap;html=1;aspect=fixed;" parent="1" vertex="1">
                    <mxGeometry x="360" y="561" width="80" height="80" as="geometry"/>
                </mxCell>
                <mxCell id="56" style="edgeStyle=none;html=1;noEdgeStyle=1;orthogonal=1;" parent="1" source="44" target="55" edge="1">
                    <mxGeometry relative="1" as="geometry">
                        <Array as="points">
                            <mxPoint x="632" y="425"/>
                            <mxPoint x="708" y="425"/>
                        </Array>
                    </mxGeometry>
                </mxCell>
                <mxCell id="44" value="OR" style="ellipse;whiteSpace=wrap;html=1;aspect=fixed;" parent="1" vertex="1">
                    <mxGeometry x="540" y="385" width="80" height="80" as="geometry"/>
                </mxCell>
                <mxCell id="55" value="Inside&lt;br&gt;Shape" style="ellipse;whiteSpace=wrap;html=1;aspect=fixed;" parent="1" vertex="1">
                    <mxGeometry x="720" y="385" width="80" height="80" as="geometry"/>
                </mxCell>
                <mxCell id="73" style="edgeStyle=none;html=1;noEdgeStyle=1;orthogonal=1;" edge="1" parent="1" source="72" target="43">
                    <mxGeometry relative="1" as="geometry">
                        <Array as="points">
                            <mxPoint x="272" y="810"/>
                            <mxPoint x="348" y="627.25"/>
                        </Array>
                    </mxGeometry>
                </mxCell>
                <mxCell id="72" value="L8" style="ellipse;whiteSpace=wrap;html=1;aspect=fixed;" vertex="1" parent="1">
                    <mxGeometry x="180" y="770" width="80" height="80" as="geometry"/>
                </mxCell>
                <mxCell id="76" value="" style="shape=trapezoid;perimeter=trapezoidPerimeter;whiteSpace=wrap;html=1;fixedSize=1;size=40;" vertex="1" parent="1">
                    <mxGeometry x="600" y="160" width="120" height="80" as="geometry"/>
                </mxCell>
                <mxCell id="77" value="" style="shape=trapezoid;perimeter=trapezoidPerimeter;whiteSpace=wrap;html=1;fixedSize=1;rotation=-180;size=40;" vertex="1" parent="1">
                    <mxGeometry x="600" y="80" width="120" height="79" as="geometry"/>
                </mxCell>
                <mxCell id="78" value="L1" style="text;html=1;align=center;verticalAlign=middle;resizable=0;points=[];autosize=1;strokeColor=none;" vertex="1" parent="1">
                    <mxGeometry x="645" y="60" width="30" height="20" as="geometry"/>
                </mxCell>
                <mxCell id="79" value="L2" style="text;html=1;align=center;verticalAlign=middle;resizable=0;points=[];autosize=1;strokeColor=none;" vertex="1" parent="1">
                    <mxGeometry x="570" y="110" width="30" height="20" as="geometry"/>
                </mxCell>
                <mxCell id="80" value="L3" style="text;html=1;align=center;verticalAlign=middle;resizable=0;points=[];autosize=1;strokeColor=none;" vertex="1" parent="1">
                    <mxGeometry x="720" y="109.5" width="30" height="20" as="geometry"/>
                </mxCell>
                <mxCell id="81" value="L4" style="text;html=1;align=center;verticalAlign=middle;resizable=0;points=[];autosize=1;strokeColor=none;" vertex="1" parent="1">
                    <mxGeometry x="645" y="140" width="30" height="20" as="geometry"/>
                </mxCell>
                <mxCell id="82" value="L6" style="text;html=1;align=center;verticalAlign=middle;resizable=0;points=[];autosize=1;strokeColor=none;" vertex="1" parent="1">
                    <mxGeometry x="570" y="190" width="30" height="20" as="geometry"/>
                </mxCell>
                <mxCell id="83" value="L7" style="text;html=1;align=center;verticalAlign=middle;resizable=0;points=[];autosize=1;strokeColor=none;" vertex="1" parent="1">
                    <mxGeometry x="720" y="190" width="30" height="20" as="geometry"/>
                </mxCell>
                <mxCell id="84" value="L8" style="text;html=1;align=center;verticalAlign=middle;resizable=0;points=[];autosize=1;strokeColor=none;" vertex="1" parent="1">
                    <mxGeometry x="645" y="240" width="30" height="20" as="geometry"/>
                </mxCell>
                <mxCell id="85" value="L5" style="text;html=1;align=center;verticalAlign=middle;resizable=0;points=[];autosize=1;strokeColor=none;" vertex="1" parent="1">
                    <mxGeometry x="645" y="159" width="30" height="20" as="geometry"/>
                </mxCell>
            </root>
        </mxGraphModel>
    </diagram>
</mxfile>
